REM DIRINDEX 1\2,1\3,1\4,1\5
REM DIRNAME folder01,folder02,folder03,folder04,folder05
TITLE ""
FILE "1Q_t_1911-1920.mp3" MP3
  TRACK 01 AUDIO
    TITLE "3:cjc004_6641"
    INDEX 01 00:00:00
  TRACK 02 AUDIO
    TITLE "0:"
    INDEX 01 00:01:28
  TRACK 03 AUDIO
    TITLE "4:cjc004_6642"
    INDEX 01 00:01:60
  TRACK 04 AUDIO
    TITLE "0:"
    INDEX 01 00:03:10
  TRACK 05 AUDIO
    TITLE "5:cjc004_6643"
    INDEX 01 00:03:31
  TRACK 06 AUDIO
    TITLE "0:"
    INDEX 01 00:08:01
  TRACK 07 AUDIO
    TITLE "3:cjc004_6644"
    INDEX 01 00:08:50
  TRACK 08 AUDIO
    TITLE "0:"
    INDEX 01 00:09:61
  TRACK 09 AUDIO
    TITLE "4:cjc004_6645"
    INDEX 01 00:10:14
  TRACK 10 AUDIO
    TITLE "0:"
    INDEX 01 00:11:40
  TRACK 11 AUDIO
    TITLE "5:cjc004_6646"
    INDEX 01 00:11:62
  TRACK 12 AUDIO
    TITLE "0:"
    INDEX 01 00:15:07
  TRACK 13 AUDIO
    TITLE "3:cjc004_6647"
    INDEX 01 00:15:58
  TRACK 14 AUDIO
    TITLE "0:"
    INDEX 01 00:17:04
  TRACK 15 AUDIO
    TITLE "4:cjc004_6648"
    INDEX 01 00:17:35
  TRACK 16 AUDIO
    TITLE "0:"
    INDEX 01 00:18:46
  TRACK 17 AUDIO
    TITLE "5:cjc004_6649"
    INDEX 01 00:18:68
  TRACK 18 AUDIO
    TITLE "0:"
    INDEX 01 00:22:40
  TRACK 19 AUDIO
    TITLE "3:cjc004_6650"
    INDEX 01 00:23:16
  TRACK 20 AUDIO
    TITLE "0:"
    INDEX 01 00:24:43
  TRACK 21 AUDIO
    TITLE "4:cjc004_6651"
    INDEX 01 00:24:69
  TRACK 22 AUDIO
    TITLE "0:"
    INDEX 01 00:26:11
  TRACK 23 AUDIO
    TITLE "5:cjc004_6652"
    INDEX 01 00:26:34
  TRACK 24 AUDIO
    TITLE "0:"
    INDEX 01 00:30:67
  TRACK 25 AUDIO
    TITLE "3:cjc004_6653"
    INDEX 01 00:31:43
  TRACK 26 AUDIO
    TITLE "0:"
    INDEX 01 00:32:52
  TRACK 27 AUDIO
    TITLE "4:cjc004_6654"
    INDEX 01 00:33:05
  TRACK 28 AUDIO
    TITLE "0:"
    INDEX 01 00:34:28
  TRACK 29 AUDIO
    TITLE "5:cjc004_6655"
    INDEX 01 00:34:55
  TRACK 30 AUDIO
    TITLE "0:"
    INDEX 01 00:39:51
  TRACK 31 AUDIO
    TITLE "3:cjc004_6656"
    INDEX 01 00:40:30
  TRACK 32 AUDIO
    TITLE "0:"
    INDEX 01 00:41:34
  TRACK 33 AUDIO
    TITLE "4:cjc004_6657"
    INDEX 01 00:41:63
  TRACK 34 AUDIO
    TITLE "0:"
    INDEX 01 00:43:11
  TRACK 35 AUDIO
    TITLE "5:cjc004_6658"
    INDEX 01 00:43:35
  TRACK 36 AUDIO
    TITLE "0:"
    INDEX 01 00:48:04
  TRACK 37 AUDIO
    TITLE "3:cjc004_6659"
    INDEX 01 00:48:57
  TRACK 38 AUDIO
    TITLE "0:"
    INDEX 01 00:49:65
  TRACK 39 AUDIO
    TITLE "4:cjc004_6660"
    INDEX 01 00:50:19
  TRACK 40 AUDIO
    TITLE "0:"
    INDEX 01 00:51:44
  TRACK 41 AUDIO
    TITLE "5:cjc004_6661"
    INDEX 01 00:51:63
  TRACK 42 AUDIO
    TITLE "0:"
    INDEX 01 00:56:37
  TRACK 43 AUDIO
    TITLE "3:cjc004_6662"
    INDEX 01 00:57:17
  TRACK 44 AUDIO
    TITLE "0:"
    INDEX 01 00:58:34
  TRACK 45 AUDIO
    TITLE "4:cjc004_6663"
    INDEX 01 00:58:60
  TRACK 46 AUDIO
    TITLE "0:"
    INDEX 01 01:00:19
  TRACK 47 AUDIO
    TITLE "5:cjc004_6664"
    INDEX 01 01:00:45
  TRACK 48 AUDIO
    TITLE "0:"
    INDEX 01 01:04:47
  TRACK 49 AUDIO
    TITLE "3:cjc004_6665"
    INDEX 01 01:05:21
  TRACK 50 AUDIO
    TITLE "0:"
    INDEX 01 01:06:34
  TRACK 51 AUDIO
    TITLE "4:cjc004_6666"
    INDEX 01 01:06:57
  TRACK 52 AUDIO
    TITLE "0:"
    INDEX 01 01:08:23
  TRACK 53 AUDIO
    TITLE "5:cjc004_6667"
    INDEX 01 01:08:44
  TRACK 54 AUDIO
    TITLE "0:"
    INDEX 01 01:12:68
  TRACK 55 AUDIO
    TITLE "3:cjc004_6668"
    INDEX 01 01:13:40
  TRACK 56 AUDIO
    TITLE "0:"
    INDEX 01 01:14:74
  TRACK 57 AUDIO
    TITLE "4:cjc004_6669"
    INDEX 01 01:15:21
  TRACK 58 AUDIO
    TITLE "0:"
    INDEX 01 01:16:46
  TRACK 59 AUDIO
    TITLE "5:cjc004_6670"
    INDEX 01 01:16:69
  TRACK 60 AUDIO
    TITLE "0:"
    INDEX 01 01:20:71
